<svg xmlns="http://www.w3.org/2000/svg" xmlns:xlink="http://www.w3.org/1999/xlink" width="141" height="43" viewBox="0 0 141 43">
  <defs>
    <clipPath id="clip-path">
      <rect id="Rectangle_1" data-name="Rectangle 1" width="43" height="43" fill="#f9f9f9"/>
    </clipPath>
  </defs>
  <g id="logo" transform="translate(-315 -181)">
    <g id="Group_2" data-name="Group 2" transform="translate(315 181)">
      <g id="Group_1" data-name="Group 1" clip-path="url(#clip-path)">
        <path id="Path_1" data-name="Path 1" d="M21.254,0A21.249,21.249,0,0,0,.012,20.761H0V42.508H8.21V21.01h.021a13.023,13.023,0,1,1,9.333,12.7,8.8,8.8,0,0,1-8.709,8.8h12.89v-.013A21.25,21.25,0,0,0,21.254,0" fill="#f9f9f9"/>
        <path id="Path_2" data-name="Path 2" d="M75.244,78.807a3.649,3.649,0,1,0-3.732-3.732h0v3.734h3.734Z" transform="translate(-53.906 -53.906)" fill="#f9f9f9"/>
      </g>
    </g>
    <g id="Group_4" data-name="Group 4" transform="translate(360.908 181)">
      <path id="Path_3" data-name="Path 3" d="M1.05-10a10.1,10.1,0,0,1,.682-3.842,7.957,7.957,0,0,1,1.865-2.8,7.924,7.924,0,0,1,2.784-1.712,10.028,10.028,0,0,1,3.466-.585,10.028,10.028,0,0,1,3.466.585,8.068,8.068,0,0,1,2.8,1.712,7.864,7.864,0,0,1,1.879,2.8A10.1,10.1,0,0,1,18.671-10,10.4,10.4,0,0,1,18-6.145a7.782,7.782,0,0,1-1.851,2.812,7.9,7.9,0,0,1-2.8,1.712,10.229,10.229,0,0,1-3.507.585,10.015,10.015,0,0,1-3.507-.6,7.823,7.823,0,0,1-2.784-1.74A8.041,8.041,0,0,1,1.718-6.187,10.2,10.2,0,0,1,1.05-10Zm5.011,0a5.871,5.871,0,0,0,1.03,3.786A3.385,3.385,0,0,0,9.847-4.962,3.415,3.415,0,0,0,12.63-6.214,5.871,5.871,0,0,0,13.66-10a5.877,5.877,0,0,0-1.016-3.758,3.376,3.376,0,0,0-2.77-1.253A3.441,3.441,0,0,0,7.1-13.772,5.755,5.755,0,0,0,6.061-10Zm23.606-.111a1.552,1.552,0,0,0-.487-1.267,2.01,2.01,0,0,0-1.322-.4,4.41,4.41,0,0,0-1.1.139,2.772,2.772,0,0,0-.933.418v9.66a6.453,6.453,0,0,1-.877.167,8.958,8.958,0,0,1-1.239.084,6.548,6.548,0,0,1-1.1-.084,1.873,1.873,0,0,1-.821-.334,1.607,1.607,0,0,1-.515-.682,2.953,2.953,0,0,1-.181-1.127v-8.351a2.145,2.145,0,0,1,.32-1.225,3.378,3.378,0,0,1,.877-.863,7.976,7.976,0,0,1,2.38-1.086,11.379,11.379,0,0,1,3.187-.418A7.511,7.511,0,0,1,32.7-14.106a4.656,4.656,0,0,1,1.7,3.828v8.713a6.453,6.453,0,0,1-.877.167,8.958,8.958,0,0,1-1.239.084,6.548,6.548,0,0,1-1.1-.084,1.873,1.873,0,0,1-.821-.334,1.607,1.607,0,0,1-.515-.682,2.953,2.953,0,0,1-.181-1.127ZM42.138-1.566q-.306.056-.9.153a7.524,7.524,0,0,1-1.211.1,6.548,6.548,0,0,1-1.1-.084,1.873,1.873,0,0,1-.821-.334,1.607,1.607,0,0,1-.515-.682,2.953,2.953,0,0,1-.181-1.127V-19.688q.306-.056.9-.153a7.524,7.524,0,0,1,1.211-.1,6.548,6.548,0,0,1,1.1.084,1.873,1.873,0,0,1,.821.334,1.607,1.607,0,0,1,.515.682,2.953,2.953,0,0,1,.181,1.127Zm2.867-17.259a2.446,2.446,0,0,1,.71-1.782,2.513,2.513,0,0,1,1.879-.724,2.513,2.513,0,0,1,1.879.724,2.446,2.446,0,0,1,.71,1.782,2.446,2.446,0,0,1-.71,1.782,2.513,2.513,0,0,1-1.879.724,2.513,2.513,0,0,1-1.879-.724A2.446,2.446,0,0,1,45.005-18.825ZM49.96-1.566q-.306.056-.9.153a7.524,7.524,0,0,1-1.211.1,6.548,6.548,0,0,1-1.1-.084,1.873,1.873,0,0,1-.821-.334,1.607,1.607,0,0,1-.515-.682,2.953,2.953,0,0,1-.181-1.127v-11.33q.306-.056.9-.153a7.525,7.525,0,0,1,1.211-.1,6.548,6.548,0,0,1,1.1.084,1.873,1.873,0,0,1,.821.334,1.607,1.607,0,0,1,.515.682A2.953,2.953,0,0,1,49.96-12.9Zm11.58-8.546a1.552,1.552,0,0,0-.487-1.267,2.01,2.01,0,0,0-1.322-.4,4.41,4.41,0,0,0-1.1.139,2.772,2.772,0,0,0-.933.418v9.66a6.453,6.453,0,0,1-.877.167,8.958,8.958,0,0,1-1.239.084,6.548,6.548,0,0,1-1.1-.084,1.873,1.873,0,0,1-.821-.334,1.607,1.607,0,0,1-.515-.682,2.953,2.953,0,0,1-.181-1.127v-8.351a2.145,2.145,0,0,1,.32-1.225,3.378,3.378,0,0,1,.877-.863,7.976,7.976,0,0,1,2.38-1.086,11.379,11.379,0,0,1,3.187-.418,7.511,7.511,0,0,1,4.844,1.378,4.656,4.656,0,0,1,1.7,3.828v8.713A6.453,6.453,0,0,1,65.4-1.4a8.958,8.958,0,0,1-1.239.084,6.548,6.548,0,0,1-1.1-.084,1.873,1.873,0,0,1-.821-.334,1.607,1.607,0,0,1-.515-.682,2.953,2.953,0,0,1-.181-1.127ZM76.35-1.092A9.762,9.762,0,0,1,73.3-1.552a6.907,6.907,0,0,1-2.45-1.378A6.382,6.382,0,0,1,69.21-5.24a8.194,8.194,0,0,1-.6-3.257,7.618,7.618,0,0,1,.6-3.16,6.243,6.243,0,0,1,1.573-2.171,6.287,6.287,0,0,1,2.227-1.253,8.3,8.3,0,0,1,2.561-.4,7.732,7.732,0,0,1,2.686.445,6.461,6.461,0,0,1,2.088,1.225,5.451,5.451,0,0,1,1.364,1.865A5.713,5.713,0,0,1,82.2-9.583a1.9,1.9,0,0,1-.529,1.448,2.645,2.645,0,0,1-1.475.64l-6.876,1.03a2.312,2.312,0,0,0,1.253,1.378,4.914,4.914,0,0,0,2.171.459A7.768,7.768,0,0,0,78.9-4.92,6.858,6.858,0,0,0,80.553-5.6a2.331,2.331,0,0,1,.752.779,2,2,0,0,1,.306,1.058A1.987,1.987,0,0,1,80.442-1.9a6.2,6.2,0,0,1-2,.64A14.116,14.116,0,0,1,76.35-1.092Zm-.779-10.94a2.759,2.759,0,0,0-1.155.223,2.326,2.326,0,0,0-.793.571,2.37,2.37,0,0,0-.459.779,3.209,3.209,0,0,0-.181.877l4.76-.779a2.1,2.1,0,0,0-.612-1.113A2.051,2.051,0,0,0,75.57-12.032ZM8.2,11.685a2.662,2.662,0,0,0,1.8-.543,2.075,2.075,0,0,0,.626-1.656,2.045,2.045,0,0,0-.654-1.628,2.82,2.82,0,0,0-1.907-.571q-.445,0-.738.014a4.557,4.557,0,0,0-.6.07v4.315ZM6.757,20.621a7.731,7.731,0,0,1-.96.167,10.214,10.214,0,0,1-1.294.084,5.8,5.8,0,0,1-1.127-.1,2,2,0,0,1-.821-.348,1.5,1.5,0,0,1-.5-.7,3.394,3.394,0,0,1-.167-1.169V5.449a1.223,1.223,0,0,1,.32-.9,2.287,2.287,0,0,1,.877-.515A10.423,10.423,0,0,1,5.24,3.543,19.4,19.4,0,0,1,7.675,3.39a9.152,9.152,0,0,1,5.874,1.642,5.424,5.424,0,0,1,2.032,4.454,6.7,6.7,0,0,1-.431,2.464,5.112,5.112,0,0,1-1.281,1.893,5.751,5.751,0,0,1-2.143,1.225,9.462,9.462,0,0,1-2.993.431H6.757Zm16.452-2.9a6.244,6.244,0,0,0,1.044-.1,2.544,2.544,0,0,0,.849-.264V15.137l-2,.167a3.081,3.081,0,0,0-1.281.334.9.9,0,0,0-.5.835,1.108,1.108,0,0,0,.431.9A2.362,2.362,0,0,0,23.208,17.726Zm-.223-10.94a11.429,11.429,0,0,1,2.742.306,6.133,6.133,0,0,1,2.116.933,4.208,4.208,0,0,1,1.35,1.587,5.079,5.079,0,0,1,.473,2.269v6.236a1.726,1.726,0,0,1-.4,1.183,4.021,4.021,0,0,1-.96.793,9.947,9.947,0,0,1-5.094,1.086A11.636,11.636,0,0,1,20.55,20.9a6.313,6.313,0,0,1-2.032-.835,3.833,3.833,0,0,1-1.308-1.42,4.2,4.2,0,0,1-.459-2,3.77,3.77,0,0,1,1.141-2.951,6.156,6.156,0,0,1,3.535-1.281l3.647-.39v-.195a1.193,1.193,0,0,0-.71-1.155,4.778,4.778,0,0,0-2.046-.348,9.468,9.468,0,0,0-2.06.223,10.947,10.947,0,0,0-1.809.557,1.928,1.928,0,0,1-.612-.766,2.421,2.421,0,0,1-.251-1.072,1.787,1.787,0,0,1,.348-1.155,2.694,2.694,0,0,1,1.072-.738,8.363,8.363,0,0,1,1.907-.445A16.554,16.554,0,0,1,22.986,6.786ZM37.294,20.7a6.453,6.453,0,0,1-.877.167,8.958,8.958,0,0,1-1.239.084,6.548,6.548,0,0,1-1.1-.084,1.873,1.873,0,0,1-.821-.334,1.607,1.607,0,0,1-.515-.682,2.953,2.953,0,0,1-.181-1.127V10.377a2.374,2.374,0,0,1,.237-1.1,2.583,2.583,0,0,1,.682-.821,4.92,4.92,0,0,1,1.1-.654,11.342,11.342,0,0,1,1.406-.515,11.909,11.909,0,0,1,1.559-.348,10.514,10.514,0,0,1,1.615-.125,3.8,3.8,0,0,1,2.116.515,1.868,1.868,0,0,1,.779,1.684,2.681,2.681,0,0,1-.111.766,3.493,3.493,0,0,1-.278.682q-.585,0-1.2.056t-1.2.167q-.585.111-1.1.237a4.839,4.839,0,0,0-.877.292Zm11.441-4.621a1.145,1.145,0,0,0,.459,1.03,2.322,2.322,0,0,0,1.294.306,5.589,5.589,0,0,0,.863-.07,4.851,4.851,0,0,0,.779-.181,3.4,3.4,0,0,1,.431.682,2.07,2.07,0,0,1,.181.9,2.152,2.152,0,0,1-.793,1.726,4.426,4.426,0,0,1-2.8.668,5.7,5.7,0,0,1-3.772-1.113,4.483,4.483,0,0,1-1.322-3.619V4.5q.306-.084.877-.181a7.193,7.193,0,0,1,1.211-.1,3.561,3.561,0,0,1,1.907.431,2.016,2.016,0,0,1,.682,1.823V8.261h3.647a4.765,4.765,0,0,1,.32.766,3.2,3.2,0,0,1,.153,1.016,1.931,1.931,0,0,1-.431,1.406,1.561,1.561,0,0,1-1.155.431H48.735Zm14.976-3.925a1.552,1.552,0,0,0-.487-1.267,2.01,2.01,0,0,0-1.322-.4,4.41,4.41,0,0,0-1.1.139,2.772,2.772,0,0,0-.933.418V20.7a6.453,6.453,0,0,1-.877.167,8.958,8.958,0,0,1-1.239.084,6.548,6.548,0,0,1-1.1-.084,1.873,1.873,0,0,1-.821-.334,1.607,1.607,0,0,1-.515-.682,2.953,2.953,0,0,1-.181-1.127V10.377a2.145,2.145,0,0,1,.32-1.225,3.378,3.378,0,0,1,.877-.863A7.976,7.976,0,0,1,58.715,7.2,11.379,11.379,0,0,1,61.9,6.786a7.511,7.511,0,0,1,4.844,1.378,4.656,4.656,0,0,1,1.7,3.828V20.7a6.453,6.453,0,0,1-.877.167,8.957,8.957,0,0,1-1.239.084,6.548,6.548,0,0,1-1.1-.084,1.873,1.873,0,0,1-.821-.334,1.607,1.607,0,0,1-.515-.682,2.953,2.953,0,0,1-.181-1.127Zm14.809,9.019a9.762,9.762,0,0,1-3.048-.459,6.907,6.907,0,0,1-2.45-1.378,6.382,6.382,0,0,1-1.642-2.31,8.194,8.194,0,0,1-.6-3.257,7.618,7.618,0,0,1,.6-3.16,6.115,6.115,0,0,1,3.8-3.424,8.3,8.3,0,0,1,2.561-.4,7.732,7.732,0,0,1,2.686.445,6.461,6.461,0,0,1,2.088,1.225,5.451,5.451,0,0,1,1.364,1.865,5.713,5.713,0,0,1,.487,2.366,1.9,1.9,0,0,1-.529,1.448,2.645,2.645,0,0,1-1.475.64L75.487,15.8a2.312,2.312,0,0,0,1.253,1.378,4.914,4.914,0,0,0,2.171.459,7.768,7.768,0,0,0,2.157-.292,6.858,6.858,0,0,0,1.656-.682,2.331,2.331,0,0,1,.752.779,2.043,2.043,0,0,1-.863,2.923,6.2,6.2,0,0,1-2,.64A14.116,14.116,0,0,1,78.521,21.178Zm-.779-10.94a2.759,2.759,0,0,0-1.155.223,2.326,2.326,0,0,0-.793.571,2.37,2.37,0,0,0-.459.779,3.209,3.209,0,0,0-.181.877l4.76-.779a2.1,2.1,0,0,0-.612-1.113A2.051,2.051,0,0,0,77.742,10.237ZM91.382,20.7a6.453,6.453,0,0,1-.877.167,8.958,8.958,0,0,1-1.239.084,6.548,6.548,0,0,1-1.1-.084,1.873,1.873,0,0,1-.821-.334,1.607,1.607,0,0,1-.515-.682,2.953,2.953,0,0,1-.181-1.127V10.377a2.374,2.374,0,0,1,.237-1.1,2.583,2.583,0,0,1,.682-.821,4.92,4.92,0,0,1,1.1-.654,11.342,11.342,0,0,1,1.406-.515,11.909,11.909,0,0,1,1.559-.348,10.515,10.515,0,0,1,1.615-.125,3.8,3.8,0,0,1,2.116.515,1.868,1.868,0,0,1,.779,1.684,2.681,2.681,0,0,1-.111.766,3.493,3.493,0,0,1-.278.682q-.585,0-1.2.056t-1.2.167q-.585.111-1.1.237a4.839,4.839,0,0,0-.877.292Z" transform="translate(-1.05 21.33)" fill="#f9f9f9"/>
    </g>
  </g>
</svg>
